<svg width="100" height="94" viewBox="0 0 100 94" fill="none" xmlns="http://www.w3.org/2000/svg">
<path d="M77.691 24.536C86.3202 33.5824 92.2526 46.7161 89.1785 56.6889C86.0505 66.6617 73.9158 73.4193 62.1047 77.9971C50.3475 82.5748 38.914 84.9727 30.177 81.0489C21.3861 77.1251 15.184 66.8252 12.0559 55.163C8.98181 43.5552 8.87394 30.5851 15.0761 22.0836C21.3322 13.5822 33.8444 9.54943 45.7633 10.0399C57.7363 10.4759 69.0619 15.4895 77.691 24.536Z" fill="#7B39ED"/>
<g filter="url(#filter0_d_48_75)">
<path d="M38.084 35.944C39.668 35.944 40.928 36.184 41.864 36.664C42.992 37.24 43.856 38.032 44.456 39.04C45.08 40.048 45.392 41.176 45.392 42.424C45.392 43.6 45.08 44.692 44.456 45.7C43.832 46.684 42.98 47.464 41.9 48.04C43.196 48.496 44.288 49.288 45.176 50.416C46.064 51.544 46.508 52.816 46.508 54.232C46.508 55.48 46.184 56.632 45.536 57.688C44.912 58.72 44.072 59.536 43.016 60.136C42.488 60.424 41.9 60.64 41.252 60.784C40.604 60.928 39.74 61 38.66 61H27.572V35.944H38.084ZM62.3204 61V42.28H52.8524V35.944H73.0844V42.28H63.6164V61H62.3204Z" fill="white"/>
</g>
<defs>
<filter id="filter0_d_48_75" x="23.572" y="35.944" width="53.5124" height="33.056" filterUnits="userSpaceOnUse" color-interpolation-filters="sRGB">
<feFlood flood-opacity="0" result="BackgroundImageFix"/>
<feColorMatrix in="SourceAlpha" type="matrix" values="0 0 0 0 0 0 0 0 0 0 0 0 0 0 0 0 0 0 127 0" result="hardAlpha"/>
<feOffset dy="4"/>
<feGaussianBlur stdDeviation="2"/>
<feComposite in2="hardAlpha" operator="out"/>
<feColorMatrix type="matrix" values="0 0 0 0 0 0 0 0 0 0 0 0 0 0 0 0 0 0 0.25 0"/>
<feBlend mode="normal" in2="BackgroundImageFix" result="effect1_dropShadow_48_75"/>
<feBlend mode="normal" in="SourceGraphic" in2="effect1_dropShadow_48_75" result="shape"/>
</filter>
</defs>
</svg>
